<?xml version="1.0" standalone="no"?>
<!DOCTYPE svg PUBLIC "-//W3C//DTD SVG 20010904//EN"
 "http://www.w3.org/TR/2001/REC-SVG-20010904/DTD/svg10.dtd">
<svg version="1.0" xmlns="http://www.w3.org/2000/svg"
 width="270.000000pt" height="270.000000pt" viewBox="0 0 270.000000 270.000000"
 preserveAspectRatio="xMidYMid meet">
<metadata>
Created by potrace 1.11, written by Peter Selinger 2001-2013
</metadata>
<g transform="translate(0.000000,270.000000) scale(0.100000,-0.100000)"
fill="#000000" stroke="none">
<path d="M664 2151 c-42 -26 -64 -59 -64 -98 0 -22 -5 -33 -17 -37 -10 -2 -58
-14 -108 -26 -119 -29 -196 -70 -266 -139 -65 -66 -102 -131 -119 -215 -21
-100 0 -176 82 -298 34 -49 42 -68 32 -72 -44 -17 -179 -281 -196 -383 -20
-124 15 -186 142 -247 63 -30 69 -31 200 -30 117 0 147 4 225 28 138 41 183
67 267 154 74 76 97 115 84 147 -11 28 -36 27 -84 -4 -126 -80 -322 -148 -458
-158 -103 -7 -166 16 -189 71 -22 52 -19 77 16 130 46 69 104 108 239 160 119
47 160 77 160 115 0 28 -49 117 -89 162 l-38 43 -97 4 c-91 4 -98 6 -106 28
-11 27 4 128 26 184 11 27 29 47 55 62 21 13 64 41 94 62 45 32 64 40 103 40
40 0 58 -7 126 -52 101 -67 171 -89 218 -69 39 17 73 51 87 88 21 57 -47 139
-141 169 -48 15 -49 39 -7 95 28 37 29 41 13 52 -23 17 -120 53 -142 53 -9 0
-31 -9 -48 -19z"/>
<path d="M2365 1996 c-33 -13 -82 -31 -108 -41 -27 -9 -81 -43 -120 -75 -88
-70 -277 -263 -277 -283 0 -19 -53 -117 -100 -187 -20 -30 -65 -111 -99 -180
l-61 -124 0 -141 0 -140 40 -71 c42 -76 125 -161 190 -194 48 -25 168 -35 250
-21 127 21 293 129 341 222 25 50 24 65 -6 94 -45 46 -155 25 -155 -29 0 -21
-94 -100 -158 -132 -41 -21 -75 -30 -122 -32 -58 -3 -70 0 -112 27 -32 20 -50
40 -54 58 -4 15 -18 40 -32 55 -37 40 -39 103 -7 213 30 106 144 342 217 450
55 83 212 255 233 255 14 0 25 -31 25 -71 0 -56 116 -179 169 -179 32 0 96 31
142 69 51 42 129 219 129 292 0 58 -27 118 -65 143 -20 13 -166 47 -195 46 -3
0 -32 -11 -65 -24z m148 -202 c15 -15 -64 -134 -89 -134 -21 0 -17 28 11 76
30 51 61 74 78 58z"/>
</g>
</svg>
